<svg xmlns="http://www.w3.org/2000/svg" xmlns:xlink="http://www.w3.org/1999/xlink" width="900" height="1104" viewBox="0 0 900 1104" role="img" aria-label="jeff system architecture: operator to green task through fresh specialist contexts, with a plain-file ledger and checked done gate. A capped blocking union passes through three mutually blind inquiry specialists, deterministic vote derivation, a fourth fresh synthesis specialist, typed recovery with preserved lineage, and one fresh gate and judgment before done or return to the Chef."><defs><marker id="a-ink" viewBox="0 0 10 10" refX="8.5" refY="5" markerWidth="6.5" markerHeight="6.5" orient="auto-start-reverse"><path d="M0.5 0.8 L9 5 L0.5 9.2 Z" fill="#1A1C1D"></path></marker><marker id="a-steel" viewBox="0 0 10 10" refX="8.5" refY="5" markerWidth="6.5" markerHeight="6.5" orient="auto-start-reverse"><path d="M0.5 0.8 L9 5 L0.5 9.2 Z" fill="#626867"></path></marker><marker id="a-acc" viewBox="0 0 10 10" refX="8.5" refY="5" markerWidth="6.5" markerHeight="6.5" orient="auto-start-reverse"><path d="M0.5 0.8 L9 5 L0.5 9.2 Z" fill="#A85713"></path></marker></defs><rect width="900" height="1104" fill="#F6F4F0"></rect><text x="44" y="46" font-family="&#39;Helvetica Neue&#39;, Helvetica, Arial, sans-serif" font-size="23" fill="#1A1C1D" font-weight="700" letter-spacing="-0.4">jeff</text><text x="92" y="45" font-family="ui-monospace, &#39;SF Mono&#39;, Menlo, Consolas, &#39;DejaVu Sans Mono&#39;, monospace" font-size="12" fill="#626867" letter-spacing="1.6">SYSTEM ARCHITECTURE</text><text x="856" y="45" font-family="ui-monospace, &#39;SF Mono&#39;, Menlo, Consolas, &#39;DejaVu Sans Mono&#39;, monospace" font-size="12" fill="#626867" letter-spacing="0.6" text-anchor="end">builders never approve their own work</text><path d="M44 76 L856 76" fill="none" stroke="#C8CAC5" stroke-width="1.4"></path><rect x="44" y="73" width="3" height="6" fill="#626867"></rect><rect x="853" y="73" width="3" height="6" fill="#626867"></rect><path d="M140 72 L140 85" fill="none" stroke="#C8CAC5" stroke-width="1.4"></path><circle cx="140" cy="76" r="2.6" fill="#F6F4F0" stroke="#626867" stroke-width="1.2"></circle><path d="M330 72 L330 85" fill="none" stroke="#C8CAC5" stroke-width="1.4"></path><circle cx="330" cy="76" r="2.6" fill="#F6F4F0" stroke="#626867" stroke-width="1.2"></circle><path d="M520 72 L520 85" fill="none" stroke="#C8CAC5" stroke-width="1.4"></path><circle cx="520" cy="76" r="2.6" fill="#F6F4F0" stroke="#626867" stroke-width="1.2"></circle><path d="M700 72 L700 85" fill="none" stroke="#C8CAC5" stroke-width="1.4"></path><circle cx="700" cy="76" r="2.6" fill="#F6F4F0" stroke="#626867" stroke-width="1.2"></circle><path d="M820 72 L820 85" fill="none" stroke="#C8CAC5" stroke-width="1.4"></path><circle cx="820" cy="76" r="2.6" fill="#F6F4F0" stroke="#626867" stroke-width="1.2"></circle><text x="214" y="388" font-family="ui-monospace, &#39;SF Mono&#39;, Menlo, Consolas, &#39;DejaVu Sans Mono&#39;, monospace" font-size="11.5" fill="#626867" letter-spacing="1.3">BUILDERS</text><path d="M284.8 384 L636 384" fill="none" stroke="#C8CAC5" stroke-width="1.2" stroke-dasharray="3 4"></path><text x="214" y="642" font-family="ui-monospace, &#39;SF Mono&#39;, Menlo, Consolas, &#39;DejaVu Sans Mono&#39;, monospace" font-size="11.5" fill="#626867" letter-spacing="1.3">INDEPENDENT JUDGMENT</text><path d="M370 638 L636 638" fill="none" stroke="#C8CAC5" stroke-width="1.2" stroke-dasharray="3 4"></path><rect x="214" y="104" width="392" height="56" rx="2" fill="#F6F4F0" stroke="#626867" stroke-width="1.4"></rect><text x="234" y="139" font-family="&#39;Helvetica Neue&#39;, Helvetica, Arial, sans-serif" font-size="19" fill="#1A1C1D" font-weight="600">Operator / Chef</text><rect x="214" y="186" width="392" height="70" rx="2" fill="#F6F4F0" stroke="#1A1C1D" stroke-width="2"></rect><text x="234" y="217" font-family="&#39;Helvetica Neue&#39;, Helvetica, Arial, sans-serif" font-size="19" fill="#1A1C1D" font-weight="600">Jeff</text><text x="234" y="238" font-family="ui-monospace, &#39;SF Mono&#39;, Menlo, Consolas, &#39;DejaVu Sans Mono&#39;, monospace" font-size="12.5" fill="#626867">thin orchestrator</text><rect x="214" y="286" width="392" height="70" rx="2" fill="#F6F4F0" stroke="#626867" stroke-width="1.4"></rect><text x="234" y="317" font-family="&#39;Helvetica Neue&#39;, Helvetica, Arial, sans-serif" font-size="19" fill="#1A1C1D" font-weight="600">Capture</text><text x="234" y="338" font-family="ui-monospace, &#39;SF Mono&#39;, Menlo, Consolas, &#39;DejaVu Sans Mono&#39;, monospace" font-size="12.5" fill="#626867">lock outcome and scope</text><rect x="214" y="402" width="392" height="70" rx="2" fill="#F6F4F0" stroke="#1A1C1D" stroke-width="1.4"></rect><rect x="226" y="432.5" width="9" height="9" fill="#1A1C1D"></rect><text x="248" y="433" font-family="&#39;Helvetica Neue&#39;, Helvetica, Arial, sans-serif" font-size="19" fill="#1A1C1D" font-weight="600">Plan + tests</text><text x="248" y="454" font-family="ui-monospace, &#39;SF Mono&#39;, Menlo, Consolas, &#39;DejaVu Sans Mono&#39;, monospace" font-size="12.5" fill="#626867">fresh context</text><rect x="214" y="502" width="392" height="70" rx="2" fill="#F6F4F0" stroke="#1A1C1D" stroke-width="1.4"></rect><rect x="226" y="532.5" width="9" height="9" fill="#1A1C1D"></rect><text x="248" y="533" font-family="&#39;Helvetica Neue&#39;, Helvetica, Arial, sans-serif" font-size="19" fill="#1A1C1D" font-weight="600">Implement or execute</text><text x="248" y="554" font-family="ui-monospace, &#39;SF Mono&#39;, Menlo, Consolas, &#39;DejaVu Sans Mono&#39;, monospace" font-size="12.5" fill="#626867">fresh context</text><rect x="214" y="656" width="392" height="70" rx="2" fill="#F6F4F0" stroke="#1A1C1D" stroke-width="1.4"></rect><rect x="219" y="661" width="382" height="60" rx="1" fill="none" stroke="#C8CAC5" stroke-width="1.2"></rect><rect x="226" y="686.5" width="9" height="9" fill="none" stroke="#1A1C1D" stroke-width="1.5"></rect><text x="248" y="687" font-family="&#39;Helvetica Neue&#39;, Helvetica, Arial, sans-serif" font-size="19" fill="#1A1C1D" font-weight="600">Review or verify</text><text x="248" y="708" font-family="ui-monospace, &#39;SF Mono&#39;, Menlo, Consolas, &#39;DejaVu Sans Mono&#39;, monospace" font-size="12.5" fill="#626867">independent context</text><rect x="214" y="756" width="392" height="70" rx="2" fill="#F6F4F0" stroke="#1A1C1D" stroke-width="1.4"></rect><rect x="219" y="761" width="382" height="60" rx="1" fill="none" stroke="#C8CAC5" stroke-width="1.2"></rect><rect x="226" y="786.5" width="9" height="9" fill="none" stroke="#1A1C1D" stroke-width="1.5"></rect><text x="248" y="787" font-family="&#39;Helvetica Neue&#39;, Helvetica, Arial, sans-serif" font-size="19" fill="#1A1C1D" font-weight="600">Conditional audit</text><text x="248" y="808" font-family="ui-monospace, &#39;SF Mono&#39;, Menlo, Consolas, &#39;DejaVu Sans Mono&#39;, monospace" font-size="12.5" fill="#626867">independent context</text><path d="M224 856 H596 L606 866 V922 L596 932 H224 L214 922 V866 Z" fill="#EADCCC" stroke="#A85713" stroke-width="2"></path><text x="238" y="890" font-family="&#39;Helvetica Neue&#39;, Helvetica, Arial, sans-serif" font-size="19" fill="#1A1C1D" font-weight="600">done gate</text><text x="238" y="911" font-family="ui-monospace, &#39;SF Mono&#39;, Menlo, Consolas, &#39;DejaVu Sans Mono&#39;, monospace" font-size="12.5" fill="#626867">derives done from the ledger</text><rect x="214" y="962" width="392" height="66" rx="2" fill="#F6F4F0" stroke="#A85713" stroke-width="1.7"></rect><rect x="226" y="990.5" width="9" height="9" fill="#A85713"></rect><text x="248" y="991" font-family="&#39;Helvetica Neue&#39;, Helvetica, Arial, sans-serif" font-size="19" fill="#1A1C1D" font-weight="600">Green task</text><text x="248" y="1012" font-family="ui-monospace, &#39;SF Mono&#39;, Menlo, Consolas, &#39;DejaVu Sans Mono&#39;, monospace" font-size="12.5" fill="#626867">ready to integrate</text><path d="M410 160 L410 186" fill="none" stroke="#1A1C1D" stroke-width="1.6" marker-end="url(#a-ink)"></path><path d="M410 256 L410 286" fill="none" stroke="#1A1C1D" stroke-width="1.6" marker-end="url(#a-ink)"></path><path d="M410 356 L410 402" fill="none" stroke="#1A1C1D" stroke-width="1.6" marker-end="url(#a-ink)"></path><path d="M410 472 L410 502" fill="none" stroke="#1A1C1D" stroke-width="1.6" marker-end="url(#a-ink)"></path><path d="M410 572 L410 656" fill="none" stroke="#1A1C1D" stroke-width="1.6" marker-end="url(#a-ink)"></path><path d="M410 726 L410 756" fill="none" stroke="#1A1C1D" stroke-width="1.6" marker-end="url(#a-ink)"></path><path d="M410 826 L410 856" fill="none" stroke="#1A1C1D" stroke-width="1.6" marker-end="url(#a-ink)"></path><path d="M410 932 L410 962" fill="none" stroke="#A85713" stroke-width="1.6" marker-end="url(#a-acc)"></path><text x="422" y="952" font-family="ui-monospace, &#39;SF Mono&#39;, Menlo, Consolas, &#39;DejaVu Sans Mono&#39;, monospace" font-size="11.5" fill="#A85713">pass</text><path d="M44 604 L104 604" fill="none" stroke="#1A1C1D" stroke-width="2"></path><path d="M130 604 L636 604" fill="none" stroke="#1A1C1D" stroke-width="2"></path><path d="M44 597 L44 611" fill="none" stroke="#1A1C1D" stroke-width="2"></path><path d="M636 597 L636 611" fill="none" stroke="#1A1C1D" stroke-width="2"></path><rect x="346" y="591" width="128" height="26" fill="#F6F4F0"></rect><text x="410" y="609" font-family="&#39;Helvetica Neue&#39;, Helvetica, Arial, sans-serif" font-size="14" fill="#1A1C1D" font-weight="700" text-anchor="middle">builder ≠ judge</text><text x="44" y="646" font-family="ui-monospace, &#39;SF Mono&#39;, Menlo, Consolas, &#39;DejaVu Sans Mono&#39;, monospace" font-size="10.5" fill="#A85713">cap</text><path d="M214 894 L206 894 L206 726 L198 726" fill="none" stroke="#A85713" stroke-width="1.6" marker-end="url(#a-acc)"></path><rect x="44" y="660" width="154" height="132" rx="2" fill="#F6F4F0" stroke="#1A1C1D" stroke-width="1.6"></rect><text x="121" y="684" font-family="&#39;Helvetica Neue&#39;, Helvetica, Arial, sans-serif" font-size="11" fill="#1A1C1D" font-weight="600" text-anchor="middle">3 mutually blind inquiries</text><rect x="49" y="700" width="46" height="24" rx="2" fill="#F6F4F0" stroke="#C8CAC5" stroke-width="1.1"></rect><text x="72" y="716" font-family="ui-monospace, &#39;SF Mono&#39;, Menlo, Consolas, &#39;DejaVu Sans Mono&#39;, monospace" font-size="8" fill="#1A1C1D" text-anchor="middle">integrity</text><rect x="98" y="700" width="46" height="24" rx="2" fill="#F6F4F0" stroke="#C8CAC5" stroke-width="1.1"></rect><text x="121" y="716" font-family="ui-monospace, &#39;SF Mono&#39;, Menlo, Consolas, &#39;DejaVu Sans Mono&#39;, monospace" font-size="8" fill="#1A1C1D" text-anchor="middle">security</text><rect x="147" y="700" width="46" height="24" rx="2" fill="#F6F4F0" stroke="#C8CAC5" stroke-width="1.1"></rect><text x="170" y="716" font-family="ui-monospace, &#39;SF Mono&#39;, Menlo, Consolas, &#39;DejaVu Sans Mono&#39;, monospace" font-size="7.3" fill="#1A1C1D" text-anchor="middle">pragmatist</text><text x="121" y="750" font-family="ui-monospace, &#39;SF Mono&#39;, Menlo, Consolas, &#39;DejaVu Sans Mono&#39;, monospace" font-size="8.4" fill="#626867" text-anchor="middle">Jeff derives each finding&#39;s vote</text><path d="M121 792 L121 816" fill="none" stroke="#A85713" stroke-width="1.5" marker-end="url(#a-acc)"></path><rect x="44" y="816" width="154" height="62" rx="2" fill="#F6F4F0" stroke="#1A1C1D" stroke-width="1.6"></rect><text x="121" y="840" font-family="&#39;Helvetica Neue&#39;, Helvetica, Arial, sans-serif" font-size="11" fill="#1A1C1D" font-weight="600" text-anchor="middle">4th fresh synthesis</text><text x="121" y="860" font-family="ui-monospace, &#39;SF Mono&#39;, Menlo, Consolas, &#39;DejaVu Sans Mono&#39;, monospace" font-size="8.5" fill="#626867" text-anchor="middle">selects typed recovery</text><path d="M121 878 L121 902" fill="none" stroke="#A85713" stroke-width="1.5" marker-end="url(#a-acc)"></path><rect x="44" y="902" width="154" height="66" rx="2" fill="#F6F4F0" stroke="#A85713" stroke-width="1.6"></rect><text x="121" y="928" font-family="&#39;Helvetica Neue&#39;, Helvetica, Arial, sans-serif" font-size="11" fill="#1A1C1D" font-weight="600" text-anchor="middle">one recovery episode</text><text x="121" y="950" font-family="ui-monospace, &#39;SF Mono&#39;, Menlo, Consolas, &#39;DejaVu Sans Mono&#39;, monospace" font-size="8.8" fill="#626867" text-anchor="middle">lineage preserved</text><path d="M121 968 L121 980 L198 980 L198 691 L214 691" fill="none" stroke="#A85713" stroke-width="1.6" marker-end="url(#a-acc)"></path><text x="44" y="996" font-family="ui-monospace, &#39;SF Mono&#39;, Menlo, Consolas, &#39;DejaVu Sans Mono&#39;, monospace" font-size="9.5" fill="#A85713">fresh gate + judgment</text><text x="44" y="1018" font-family="&#39;Helvetica Neue&#39;, Helvetica, Arial, sans-serif" font-size="11" fill="#1A1C1D" font-weight="600">Done or back to Chef</text><rect x="656" y="286" width="200" height="540" rx="2" fill="#EFEDE8" stroke="#1A1C1D" stroke-width="1.6"></rect><text x="676" y="316" font-family="ui-monospace, &#39;SF Mono&#39;, Menlo, Consolas, &#39;DejaVu Sans Mono&#39;, monospace" font-size="12" fill="#1A1C1D" letter-spacing="1.1">PLAIN-FILE LEDGER</text><path d="M656 334 L856 334" fill="none" stroke="#1A1C1D" stroke-width="1.4"></path><rect x="676" y="415" width="9" height="9" fill="none" stroke="#A85713" stroke-width="1.5"></rect><text x="694" y="424" font-family="ui-monospace, &#39;SF Mono&#39;, Menlo, Consolas, &#39;DejaVu Sans Mono&#39;, monospace" font-size="15" fill="#1A1C1D">state</text><rect x="676" y="551" width="9" height="9" fill="none" stroke="#A85713" stroke-width="1.5"></rect><text x="694" y="560" font-family="ui-monospace, &#39;SF Mono&#39;, Menlo, Consolas, &#39;DejaVu Sans Mono&#39;, monospace" font-size="15" fill="#1A1C1D">evidence</text><rect x="676" y="687" width="9" height="9" fill="none" stroke="#A85713" stroke-width="1.5"></rect><text x="694" y="696" font-family="ui-monospace, &#39;SF Mono&#39;, Menlo, Consolas, &#39;DejaVu Sans Mono&#39;, monospace" font-size="15" fill="#1A1C1D">journal</text><path d="M676 488 L836 488" fill="none" stroke="#D7D9D3" stroke-width="1.2"></path><path d="M676 624 L836 624" fill="none" stroke="#D7D9D3" stroke-width="1.2"></path><path d="M606 221 L756 221 L756 286" fill="none" stroke="#1A1C1D" stroke-width="1.6" marker-end="url(#a-ink)" marker-start="url(#a-ink)"></path><path d="M606 894 L756 894 L756 826" fill="none" stroke="#1A1C1D" stroke-width="1.6" marker-end="url(#a-ink)" marker-start="url(#a-ink)"></path><path d="M606 437 L656 437" fill="none" stroke="#626867" stroke-width="1.5" stroke-dasharray="2 4" marker-end="url(#a-steel)"></path><path d="M606 537 L656 537" fill="none" stroke="#626867" stroke-width="1.5" stroke-dasharray="2 4" marker-end="url(#a-steel)"></path><path d="M606 691 L656 691" fill="none" stroke="#626867" stroke-width="1.5" stroke-dasharray="2 4" marker-end="url(#a-steel)"></path><path d="M606 791 L656 791" fill="none" stroke="#626867" stroke-width="1.5" stroke-dasharray="2 4" marker-end="url(#a-steel)"></path><path d="M44 1058 L66 1058" fill="none" stroke="#1A1C1D" stroke-width="1.6"></path><text x="74" y="1062" font-family="ui-monospace, &#39;SF Mono&#39;, Menlo, Consolas, &#39;DejaVu Sans Mono&#39;, monospace" font-size="11.5" fill="#626867">flow</text><path d="M127.6 1058 L149.6 1058" fill="none" stroke="#626867" stroke-width="1.6" stroke-dasharray="2 4"></path><text x="157.6" y="1062" font-family="ui-monospace, &#39;SF Mono&#39;, Menlo, Consolas, &#39;DejaVu Sans Mono&#39;, monospace" font-size="11.5" fill="#626867">ledger write</text><path d="M266.4 1058 L288.4 1058" fill="none" stroke="#A85713" stroke-width="1.8"></path><text x="296.4" y="1062" font-family="ui-monospace, &#39;SF Mono&#39;, Menlo, Consolas, &#39;DejaVu Sans Mono&#39;, monospace" font-size="11.5" fill="#626867">bounded convergence</text></svg>